<svg xmlns="http://www.w3.org/2000/svg" xmlns:xlink="http://www.w3.org/1999/xlink" width="500" zoomAndPan="magnify" viewBox="0 0 375 374.999991" height="500" preserveAspectRatio="xMidYMid meet" version="1.0"><defs><clipPath id="5c4bd56a6f"><path d="M 75.105469 26.519531 L 300 26.519531 L 300 348.269531 L 75.105469 348.269531 Z M 75.105469 26.519531 " clip-rule="nonzero"/></clipPath></defs><g clip-path="url(#5c4bd56a6f)"><path fill="#fdf8f0" d="M 246.597656 89.921875 L 241.527344 89.921875 C 241.929688 85.753906 241.625 79.761719 238.273438 73.53125 C 234.886719 67.230469 229.9375 63.621094 226.03125 61.585938 C 233.15625 56.476562 236.453125 51.5625 236.015625 46.640625 C 234.847656 33.546875 207.085938 26.574219 187.496094 26.574219 C 167.90625 26.574219 140.144531 33.546875 138.972656 46.636719 C 138.535156 51.558594 141.832031 56.472656 148.957031 61.582031 C 145.050781 63.617188 140.101562 67.230469 136.714844 73.527344 C 133.363281 79.761719 133.058594 85.75 133.460938 89.917969 L 128.390625 89.917969 C 99.011719 89.921875 75.105469 113.644531 75.105469 142.800781 L 75.105469 181.195312 C 75.421875 204.574219 78.894531 227.820312 85.425781 250.285156 C 91.894531 272.53125 101.316406 293.832031 113.421875 313.617188 L 113.421875 337.355469 C 113.421875 343.453125 118.382812 348.414062 124.480469 348.414062 L 250.511719 348.414062 C 256.605469 348.414062 261.570312 343.453125 261.570312 337.355469 L 261.570312 313.617188 C 273.675781 293.832031 283.101562 272.53125 289.566406 250.285156 C 296.097656 227.820312 299.566406 204.574219 299.882812 181.160156 L 299.882812 142.800781 C 299.882812 113.644531 275.980469 89.921875 246.597656 89.921875 Z M 187.496094 178.605469 L 80.214844 178.605469 L 80.214844 168.511719 L 294.777344 168.511719 L 294.777344 178.605469 Z M 187.496094 158.375 L 294.777344 158.375 L 294.777344 163.402344 L 80.214844 163.402344 L 80.214844 158.375 Z M 187.496094 31.683594 C 205.394531 31.683594 223.445312 37.117188 229.097656 43.480469 C 201.730469 38.011719 173.257812 38.011719 145.894531 43.480469 C 151.550781 37.113281 169.601562 31.683594 187.496094 31.683594 Z M 144.347656 49.023438 C 172.675781 42.988281 202.308594 42.988281 230.640625 49.023438 C 229.675781 52.089844 225.996094 55.722656 219.949219 59.515625 L 155.042969 59.515625 C 148.992188 55.722656 145.3125 52.085938 144.347656 49.023438 Z M 141.214844 75.949219 C 145.148438 68.636719 151.699219 65.652344 154.703125 64.625 L 220.289062 64.625 C 223.292969 65.648438 229.84375 68.636719 233.777344 75.949219 C 236.707031 81.390625 236.753906 86.695312 236.390625 89.921875 L 138.601562 89.921875 C 138.238281 86.695312 138.289062 81.386719 141.214844 75.949219 Z M 128.394531 95.03125 L 246.597656 95.03125 C 273.164062 95.03125 294.777344 116.460938 294.777344 142.800781 L 294.777344 153.265625 L 80.214844 153.265625 L 80.214844 142.800781 C 80.214844 116.460938 101.828125 95.03125 128.394531 95.03125 Z M 250.511719 343.304688 L 124.480469 343.304688 C 121.199219 343.304688 118.53125 340.636719 118.53125 337.359375 L 118.53125 315.476562 L 256.460938 315.476562 L 256.460938 337.359375 C 256.460938 340.636719 253.792969 343.304688 250.511719 343.304688 Z M 284.660156 248.859375 C 278.382812 270.445312 269.28125 291.128906 257.585938 310.363281 L 117.410156 310.363281 C 105.710938 291.128906 96.605469 270.445312 90.332031 248.859375 C 84.167969 227.652344 80.8125 205.738281 80.292969 183.714844 L 294.695312 183.714844 C 294.175781 205.761719 290.820312 227.664062 284.660156 248.859375 Z M 284.660156 248.859375 " fill-opacity="1" fill-rule="nonzero"/></g><path fill="#fdf8f0" d="M 213.039062 229.28125 L 190.050781 229.28125 L 190.050781 206.5 C 190.050781 205.085938 188.90625 203.945312 187.496094 203.945312 C 186.085938 203.945312 184.941406 205.085938 184.941406 206.5 L 184.941406 229.28125 L 161.953125 229.28125 C 160.542969 229.28125 159.398438 230.425781 159.398438 231.835938 C 159.398438 233.25 160.542969 234.390625 161.953125 234.390625 L 184.941406 234.390625 L 184.941406 279.980469 C 184.941406 281.394531 186.085938 282.535156 187.496094 282.535156 C 188.90625 282.535156 190.050781 281.394531 190.050781 279.980469 L 190.050781 234.390625 L 213.039062 234.390625 C 214.449219 234.390625 215.59375 233.25 215.59375 231.835938 C 215.59375 230.425781 214.449219 229.28125 213.039062 229.28125 Z M 213.039062 229.28125 " fill-opacity="1" fill-rule="nonzero"/></svg>